<svg xmlns="http://www.w3.org/2000/svg" class="logo" viewBox="0 0 147.16 30.83" role="img" aria-label="Engel &amp; Völkers Capital">
<title>Engel &amp; Völkers Capital</title>
  <path d="M0 3.27v11.85h8.99v-2.19H2.6v-2.9h5.75V8H2.6V5.46h6.26V3.27H0zm11.01 0h2.58l4.95 7.95h.03V3.27h2.44v11.85h-2.6l-4.93-7.93h-.04v7.93h-2.43V3.27zm20.86 10.51a4 4 0 0 1-3.25 1.63c-3.67 0-5.83-2.74-5.83-6.16S24.95 3 28.62 3a4.76 4.76 0 0 1 5 4.18h-2.5a2.43 2.43 0 0 0-2.51-2c-2.34 0-3.22 2-3.22 4.07s.88 4 3.22 4a2.57 2.57 0 0 0 2.82-2.56h-2.61V8.72h5v6.41h-1.68zm4.2-10.51h8.86v2.19h-6.26V8h5.75v2.03h-5.75v2.9h6.4v2.19h-9V3.27zm10.92 0h2.61v9.66h5.77v2.19h-8.38V3.27z"></path>
  <path d="M64.3 13.94a4.52 4.52 0 0 1-3.3 1.41 3.52 3.52 0 0 1-3.83-3.55 4 4 0 0 1 2.66-3.44 3.89 3.89 0 0 1-1.13-2.52 2.89 2.89 0 0 1 3.09-2.71C63.54 3.14 65 4.1 65 6a3.39 3.39 0 0 1-2.11 3l1.53 1.87a4.21 4.21 0 0 0 .43-1.41h2a5.64 5.64 0 0 1-1.15 2.92l2.41 2.81h-2.85zM61 9.89a2.34 2.34 0 0 0-1.66 2 1.65 1.65 0 0 0 1.69 1.56 2.59 2.59 0 0 0 2-1zm.83-5.18a1 1 0 0 0-1.06 1 2.82 2.82 0 0 0 .93 1.78c.66-.43 1.21-.83 1.21-1.69a1.12 1.12 0 0 0-1.08-1.13" class="ci-color"></path>
  <path d="M74.55 15.12h-2.94L67.75 3.27h2.69l2.64 8.33h.04l2.67-8.33h2.69l-3.93 11.85zM84.75 3c3.67 0 5.83 2.74 5.83 6.26s-2.16 6.16-5.83 6.16-5.83-2.74-5.83-6.16S81.08 3 84.75 3m0 10.23c2.34 0 3.22-2 3.22-4s-.88-4.07-3.22-4.07-3.22 2-3.22 4.07.88 4 3.22 4M81.93 0h2.24v1.94h-2.24zm3.42 0h2.24v1.94h-2.24zm6.96 3.27h2.6v9.66h5.78v2.19h-8.38V3.27zm9.84 0h2.6v4.91l4.64-4.91h3.25l-4.63 4.68 5.08 7.17h-3.27l-3.57-5.33-1.5 1.51v3.82h-2.6V3.27zm12.43 0h8.86v2.19h-6.25V8h5.74v2.03h-5.74v2.9h6.39v2.19h-9V3.27zm11.2 0h6.39a3.26 3.26 0 0 1 3.47 3.27 2.91 2.91 0 0 1-1.88 3c1.28.33 1.64 1.58 1.73 2.77a6.47 6.47 0 0 0 .5 2.81h-2.61a13 13 0 0 1-.42-2.84c-.18-1.24-.66-1.79-2-1.79h-2.61v4.63h-2.61zm2.61 5.36h2.86c1.16 0 1.79-.5 1.79-1.69s-.63-1.64-1.79-1.64h-2.86zm11.32 2.56c0 1.58 1.23 2.19 2.62 2.19.91 0 2.31-.27 2.31-1.48s-1.78-1.49-3.52-2-3.54-1.15-3.54-3.37C137.59 4.15 139.88 3 142 3c2.47 0 4.75 1.08 4.75 3.82h-2.52C144.16 5.38 143.15 5 141.9 5c-.83 0-1.79.35-1.79 1.34s.56 1 3.53 1.79c.86.21 3.52.76 3.52 3.45 0 2.17-1.71 3.8-4.93 3.8-2.62 0-5.08-1.29-5-4.22z"></path>
  <path d="M90.4 23.15a2.41 2.41 0 0 0-2.44-2c-2.2 0-3 1.88-3 3.83s.83 3.74 3 3.74a2.52 2.52 0 0 0 2.53-2.5h2.38A4.72 4.72 0 0 1 88 30.83c-3.46 0-5.49-2.58-5.49-5.8s2-5.9 5.49-5.9a4.53 4.53 0 0 1 4.82 4zm6.49-3.76h2.52l4.18 11.17H101l-.85-2.49H96l-.88 2.49h-2.47zm-.23 6.85h2.89l-1.41-4.1zm7.82-6.85h5c2.78 0 3.86 1.77 3.86 3.58s-1.08 3.58-3.86 3.58h-2.58v4h-2.46zm2.46 5.26h1.91c1.15 0 2.15-.25 2.15-1.65s-1-1.68-2.16-1.68h-1.91zm7.66-5.26h2.46v11.17h-2.46zm6.93 2.07h-3.35v-2.07h9.15v2.07h-3.34v9.1h-2.46v-9.1zm9.47-2.07h2.52l4.18 11.17h-2.55l-.84-2.49h-4.18l-.88 2.49h-2.45zm-.23 6.85h2.89l-1.41-4.1zm7.94-6.85h2.45v9.11h5.45v2.06h-7.9V19.39z" class="ci-color"></path>
</svg>